<svg xmlns="http://www.w3.org/2000/svg" xml:space="preserve" style="clip-rule:evenodd;fill-rule:evenodd;image-rendering:optimizeQuality;shape-rendering:geometricPrecision;text-rendering:geometricPrecision" viewBox="0 0 1500 275"><g style="display:inline"><path d="M0 0h1500v275H0z" style="clip-rule:evenodd;display:inline;fill:none;fill-opacity:.499089;fill-rule:evenodd;stroke-width:1.66709;stroke-opacity:.15;image-rendering:optimizeQuality;shape-rendering:geometricPrecision;text-rendering:geometricPrecision"/><path d="M1421 26.4q-.6-.1-1 1a145 145 0 0 1-30.5 48.7c-64-.2-439.6-1.4-537 2-8.5.4-7.1 2.7-2 3.2 35 1.2 478 2.6 539 2.9 3 4 7.7 9.2 9.6 12.2q10.8 14.5 17.1 31.5c.4 24.6.6 48 1.4 63.4.2 3.4 4.2 3.5 4.4 0 .7-15 1.4-38.4 1.7-62 6.6-13.4 13.2-27.9 23-39.2q4.3-5.4 9.4-10.1-5.1-5.1-9.6-10.7-14.5-18.7-23.5-40.6c-.3-.7-1.2-2.4-2-2.3M80.7 27.5q-.7 0-1.3 1C72 43.5 64 58.2 53.1 71l-8.4 8.6c-.6 1.1 2 2.7 2.3 3.8 12.5 13 22.1 28.6 29 45.2.2 24.6 1 47.5 1.8 62.9.1 3.3 4 3.4 4.3 0 .7-15.4 1.8-38.6 2-62.9a225 225 0 0 1 27.4-44.2c61-.5 301.9-2.4 464.5-1.2 43.2-1.9 51.6-.1 74.2-2.3 2.2-.5.9-2.6-1.1-2.4-24-1.1-48-1.2-72-1.8L111.4 76A180 180 0 0 1 82 28.3q-.8-.8-1.2-.8M1422.6 45q.6 0 1 .7a131 131 0 0 0 8.3 16.5 69 69 0 0 0 10.7 14.5q2.4 2.4.5 5-12.3 13.7-19.5 30.5-1.8 2.3-2.2-.6.5-8.3.3-16.4c.6-15 4.3-15 18.1-14.2q3-.8 0-1.7c-21.5 2.5-17.8-12.8-18.4-28.5q-.1-2.7.4-5.4.5-.4.8-.4M82 45q1 .1 1.7 1.7a110 110 0 0 0 17.8 29.5q.7 1.2 1 2.7H86.1c-6.5-4.4-5.6-24.7-5.1-32.3q0-1.7.9-1.6m-4.7 3.5q.9 0 1 2c-1.5 9.4 3 25.3-8.5 29.4q-5.5-.4-11.2-.4c-.4-.8-2.5-1.2-1.5-2.2Q69 65 75.7 49.8q1-1.3 1.6-1.3m1341.1 0q.8 0 .8 1.5c-.6 7 1 21.8-4 27.3a12 12 0 0 1-4.6 2.7 23 23 0 0 1 4 2.3c6 5 3.2 21.9 4.6 29.1q0 1.1-.6 2-1.8-1-2.5-2.6a119 119 0 0 0-17.7-28.5l-.7-1.7a38 38 0 0 0 7.6-.6c-.8-1.8-5.2-1.4-6.8-1.8q-.7-.7-.1-1.6a132 132 0 0 0 18.2-26.6q.8-1.2 1.8-1.5M749.9 70.2c-4.4 0-9 2.8-10.5 9.9.5 9.8 11.5 14.2 18.3 6.9 6.8-8.8-.4-16.7-7.8-16.8M705.3 73c-3.4-.1-7 2.2-7.7 7 1.7 8.8 13.2 9.5 14.4.6-.1-5-3.3-7.5-6.7-7.6m90.2.5c-3.5 0-6.7 2.3-6.7 6.6 1.5 10 17.5 7.4 13.6-2.4a8 8 0 0 0-6.9-4.2m-45.2 2.8c1.6 0 3 2.7 2 5.6q-3 2.5-4.6-.9c.4-3.3 1.5-4.6 2.6-4.7M57 79.8l.6.1c-.3 1.5 2.2 1.3 3 1.4l9.1-.6c11.2 3 9.2 23 9 32.2q-.2 2.4-1.7.6-7.5-17.1-20.2-31.1c-.8-.8-1-2.5.2-2.6m45.8.1c1.3.2-.1 2.3-.4 3-7.9 10.7-15 20.4-19.5 33.2q-1.4 1.8-2-.6c.4-8.6-2.6-31.1 6.8-34.3 3.2 0 12.7.9 15-1.3m1317 124.8c-8.3 0-7.3 12.8.2 12.9 7 0 8.4-13.1-.2-13m-1340 0c-8.2.3-7 13 .3 13 7 0 8.5-13-.2-13m1340 23c-8 0-3 13.3 0 13.3s8.5-13.2 0-13.3M80 227.9c-8 0-3 13.2 0 13.2s8.4-13.2 0-13.2" style="clip-rule:evenodd;display:inline;fill-rule:evenodd;stroke-width:1.25;image-rendering:optimizeQuality;shape-rendering:geometricPrecision;text-rendering:geometricPrecision;stroke:none;fill:#000;fill-opacity:1"/></g></svg>