<svg xmlns="http://www.w3.org/2000/svg" xml:space="preserve" width="270" height="90" style="clip-rule:evenodd;fill-rule:evenodd;image-rendering:optimizeQuality;shape-rendering:geometricPrecision;text-rendering:geometricPrecision"><g style="display:inline"><path d="M0 0h270v90H0z" style="font-variation-settings:normal;clip-rule:evenodd;display:inline;vector-effect:none;fill:none;fill-opacity:1;fill-rule:evenodd;stroke-width:1.57541;stroke-linecap:butt;stroke-linejoin:miter;stroke-miterlimit:4;stroke-dasharray:none;stroke-dashoffset:0;stroke-opacity:1;-inkscape-stroke:none;paint-order:markers stroke fill;image-rendering:optimizeQuality;shape-rendering:geometricPrecision;text-rendering:geometricPrecision"/><path d="M133.225 58.416c.87.34 1.75.68 2.62 1.03-.04.81-.1 1.61-.17 2.41-.32 1.65-.81 1.74-1.46.26-.42-1.21-.75-2.44-.99-3.7m-68.69-20.32c-.04.8-.04 1.59.01 2.38-3.51-.08-7.01-.12-10.52-.13-1.79-.03-1.59-1.76.04-1.97 3.49-.22 6.97-.32 10.47-.28m71.31 21.35c-.87-.35-1.75-.69-2.62-1.03-4.26-.88-7.14-2.48-11.01-4.34-3.21-.28-2.74.2-2.95-3.1-3.17-3.54-3.18-6.25-8.42-8.11-15.49-1.66-30.74-2.01-46.3-2.39-.05-.79-.05-1.58-.01-2.38 15.56-1.34 30.94-.08 46.36-2.98 5.05-1.35 5.17-4.33 8.23-7.64 1.1-3.92-1.02-3.53 3.89-4.24 1.04-.59 2.07-1.21 3.07-1.87 1.75-.83 7.26-1.17 8.2-2.79.45-2.89 1.01-2.93 1.68-.11 1.37 2.4 8.8 1.91 11.58 5.44 3.35.34 2.88-1.31 3.18 2.82 1.41 1.7 2.59 3.56 3.53 5.56 4.55 4.86 16.55 3.7 22.78 4.74 12.93.36 26.07.44 38.94 1.48 1.6.14 1.89 1.93.11 1.81-19.04.19-37.92.64-56.86 2.35-5.01 2.02-7.55 5.95-8.69 11.04-.98-.14-1.97-.08-2.97.15-2.62 1.35-5.27 2.64-7.96 3.87-.81.54-3.88.38-3.76 1.72m-17.14-22.11c-.72 15.82 15.67 22.26 27.75 13.48 5.72-7.67 6.48-10.76 3.06-19.9-8.89-13.37-29.05-10.01-30.81 6.42m7.37 2c.83-11.07 15.04-12.02 17.54-.51-1.57 11.11-16.29 11.85-17.54.51m5.52 0c-.18 3.3 4.67 4.48 6.21 1.67 2.7-6.63-6.98-6.3-6.21-1.67m-18.88 1.16c.5.9 1.26 1.22 2.27.96 1.06-1.65-1.47-1.48-2.27-.96m42.15.16c.45 1.4 1.33 1.73 2.65 1 .9-.73.74-1.18-.46-1.34-.76-.05-1.49.06-2.19.34M0 39.336c1.01-4.51 6.53-4.28 6.24.54-.81 3.73-5.54 3.01-6.24-.54m16.81 0c.67-6.28 8.46-1.9 4.79 2.17-2.63 1.48-4.23.76-4.79-2.17m16.18.97c-.44-4.07 3.5-6.22 5.78-2.38 1.67 4.09-4.15 6.54-5.78 2.38m216.39-3.99c3.09-.73 4.71 1.84 3.95 4.62-3.91 4.05-8.47-1.44-3.95-4.62m16.06.52c2.45-1.02 3.97-.21 4.56 2.42-.06 2.25-1.23 3.39-3.49 3.41-3.03-.92-3.13-3.8-1.07-5.83m-34.66 2.53c.88-4.01 5.4-4.21 6.19-.11-.36 4.18-5.45 4.11-6.19.11" style="font-variation-settings:normal;clip-rule:evenodd;display:inline;opacity:1;vector-effect:none;fill:#000;fill-opacity:1;fill-rule:evenodd;stroke-width:1;stroke-linecap:butt;stroke-linejoin:miter;stroke-miterlimit:4;stroke-dasharray:none;stroke-dashoffset:0;stroke-opacity:1;-inkscape-stroke:none;image-rendering:optimizeQuality;shape-rendering:geometricPrecision;text-rendering:geometricPrecision;stop-color:#000;stop-opacity:1"/></g></svg>