<svg xmlns="http://www.w3.org/2000/svg" xml:space="preserve" width="270" height="90" style="clip-rule:evenodd;fill-rule:evenodd;image-rendering:optimizeQuality;shape-rendering:geometricPrecision;text-rendering:geometricPrecision"><g style="display:inline"><path d="M0 0h270v90H0z" style="font-variation-settings:normal;clip-rule:evenodd;display:inline;vector-effect:none;fill:none;fill-opacity:1;fill-rule:evenodd;stroke-width:1.57541;stroke-linecap:butt;stroke-linejoin:miter;stroke-miterlimit:4;stroke-dasharray:none;stroke-dashoffset:0;stroke-opacity:1;-inkscape-stroke:none;paint-order:markers stroke fill;image-rendering:optimizeQuality;shape-rendering:geometricPrecision;text-rendering:geometricPrecision"/><path d="M126.903 18.836c.54.33.94.78 1.2 1.36-.51-.36-.9-.82-1.2-1.36m0 0c.3.54.69 1 1.2 1.36-3.28 1.88-5.77 4.51-7.45 7.89-.35-.74-.75-1.45-1.22-2.12 1.79-3.1 4.28-5.48 7.47-7.13m-62.88 18.87c-.35.95-.68 1.91-.99 2.87q-4.29 0-8.58-.24c-1.08-.09-1.59-.65-1.52-1.7 1.01-1.35 9.17-.79 11.09-.93m140.99.07c3.51-.02 7.02.04 10.53.2 1.22-.07 2.35.19 3.38.79.11.92-.34 1.4-1.33 1.42-3.61.16-7.23.31-10.84.45.81-2.01-1.16-1.56-1.74-2.86m0 0c.58 1.3 2.55.85 1.74 2.86q-20.64-.315-41.22 1.29c-12.3-1.52-9.95.14-16.41 8.7-10.33 5.64-12.52 6.2-13.27 18.8-.95 1.5-2 .51-1.96-.9-.4-11.29-1.07-12.2-11.14-16.95-8.26-12.32-13.83-8.89-27.22-10.33-10.83-.51-21.66-.73-32.5-.67.31-.96.64-1.92.99-2.87 12.61-.2 25.22-.55 37.82-1.06 7.54-1.42 14.31 2.08 16.36-7.6.34-1.05.75-2.08 1.23-3.08.47.67.87 1.38 1.22 2.12a22.73 22.73 0 0 0-1.5 11.3c.05 1.89 2.45 6.98 4.33 7.45.25-.93.55-1.82.93-2.68.45.87.89 1.74 1.33 2.62 4.92 1.13.13 2.79 2.24 3.61 8.72 5.16 19.07 1.33 23.65-7.35.56-.79.79-1.67.68-2.62-.46-.32-.92-.29-1.36.08-11.05 11.13-31.42-5.25-19.11-19.19 1.03-.87 2-1.78 2.9-2.74-1.54-1.22-5.04.98-6.64 1.63-.26-.58-.66-1.03-1.2-1.36 4.95-3.4 12.74-4.69 17.91-1.28-.32.35-.72.53-1.22.52-3.36-.09-6.33.95-8.93 3.12-4.29 3.15-4.03 9.6-2.12 14.04 4.09 4.88 8.28 6.62 14.77 5.22 2.36-.45 3.71-2.53 5.55-3.83 2.27-1.53 5.07-.01 7.6-.23 1.69-.22 3.37-.35 5.07-.41 3.64.55 7.31.87 11 .94 9.49.37 18.99.66 28.48.85m-172.237-.84c.95 1.7 1.01 3.45.2 5.24q-2.025-.24-4.02-.57c-3.02-3.09.27-5.88 3.82-4.67m-27.63 1.14c.18.94.17 1.87-.02 2.81q-2.295 2.07-4.8.36c-1.47-3.75 2.37-6.53 4.82-3.17m13.93 2.72c-.28.33-.55.68-.79 1.05-5.08 1.22-6.22-4.16-1.73-5.23 2.89-.18 2.61 2.13 2.52 4.18m214.609-.82c-.41-5.64 7.79-4.37 5.18 1.43-1.64 1.17-4.99 1.18-5.18-1.43m21.15-1.71c.18.98.13 1.94-.17 2.88-1.21 1.01-2.57 1.22-4.07.64-2.69-2.97 1.54-7.6 4.24-3.52m9.83 3.57c.15-1.35.24-2.71.29-4.07 3.9-3.16 7.12 2.52 3.4 4.2-1.24.21-2.47.16-3.69-.13" style="clip-rule:evenodd;display:inline;fill-rule:evenodd;image-rendering:optimizeQuality;shape-rendering:geometricPrecision;text-rendering:geometricPrecision"/></g></svg>