<svg xmlns="http://www.w3.org/2000/svg" xml:space="preserve" style="clip-rule:evenodd;fill-rule:evenodd;image-rendering:optimizeQuality;shape-rendering:geometricPrecision;text-rendering:geometricPrecision" viewBox="0 0 4400 440"><g style="display:inline"><path fill="#fdfefd" d="M.25.25h4400v440H.25z" style="clip-rule:evenodd;fill:none;fill-rule:evenodd;stroke:none;image-rendering:optimizeQuality;shape-rendering:geometricPrecision;text-rendering:geometricPrecision" transform="translate(-.25 -.25)"/><path d="M1997.8169 99.231432c-.087-.003-.1715.007-.2539.0312-.6263.4949-.7987 1.130838-.5058 1.898438 1.4646 2.3735 2.8787 4.77717 4.2422 7.20117.7471 1.66598 1.4742 3.34182 2.2011 5.00781v.002c4.949 9.6152 7.7673 17.39331 9.1914 28.04882.2121 1.02011.102 1.99854-.3222 2.92774-1.515.6161-3.0813 1.10124-4.6973 1.46484-2.4947 1.3635-.7885 3.51488.7871 4.7168 6.6559 4.55509 1.375 12.94837-3.4629 16.51367-12.3726 7.4942-22.1305 3.56507-33.6445-2.70703-.7171.0202-2.1915-.57502-2.4844.33398-.8686 1.6968.9192 3.51493 1.4141 5.07032.1919 1.0504 1.7576 3.86755.4648 4.56445-12.0594 3.7875-23.6835 7.63543-36.4297 8.32227-24.9874 1.80788-49.005-.44417-73.75-3.60547-4.4235-.65648-8.8384-1.3747-13.2519-2.15235-23.7249-5.15102-47.2589-11.05794-70.5899-17.74414-8.4335-2.03012-16.8357-4.14195-25.2187-6.34375-7.7467-1.98969-15.5342-3.83835-23.3516-5.53515-2.626-.70699-5.2919-1.28117-7.9785-1.75586-5.2418-.93929-10.5146-1.74746-15.7969-2.41407-9.8172-1.5453-19.6945-2.38466-29.6328-2.50586-25.2803-.8282-50.5302-.27318-75.75 1.66602-9.5141 1.20189-19.0087 2.54656-28.4824 4.03125-1.2019.18181-2.413.36346-3.625.53516-2.4442.39389-4.869.83809-7.293 1.36328-9.8576 2.17152-19.6853 4.47477-29.4921 6.88867-2.1513.55551-4.3133 1.09036-6.4747 1.60547-1.8988.43429-3.8062.84795-5.705 1.25195-13.3136 3.57079-16.1308 5.01177-17.4453 4.95117-.4937-.0227-.9781.0336-1.4629.16992-3.4239 1.09084-6.8577 2.03023-10.3321 2.82813.2424 1.212 2.8883.66697 3.7266.69727 3.1916-.6565 6.3637-1.39513 9.5351-2.20313.01-.1111 12.1812-2.61527 18.2715-3.67578 5.0803-.87869 10.1291-1.92991 15.1387-3.16211 2.7977-.56562 5.6261-.90743 8.4844-1.04883 11.1403-3.7067 21.8659-3.15264 32.9355-5.09179.6463-.15149 1.2932-.30166 1.9395-.45313 8.0295-1.91902 17.5543-1.90973 25.8261-2.04102 16.635.88881 34.6335-.20259 50.9551 2.90821 16.1903 4.07031 33.2679 4.26342 48.8926 10.46484 9.8374 3.2522 18.1708 8.76563 24.9883 16.55274.4446.6464.4751 1.30409.08 1.9707-2.8785 1.98969-5.4541 4.31244-7.7266 6.96875-.3737.909-.1209 1.60504.7481 2.08984 4.8861.6161 9.3922 2.2519 13.5332 4.90821 5.2924 4.646 10.5046 9.4036 15.6152 14.26171 2.2422 1.5655 9.868 8.95876 12.3223 6.25196.5555-3.7269-7.1818-8.90732-9.3028-11.76563-11.6554-12.8371-1.4848-24.8659 12.7461-27.4414 22.8058-1.62611 46.8036 6.8465 68.711 12.60351 9.3704 2.0503 18.7356 4.12153 28.0781 6.23242.4343.62621.3732 1.20264-.1621 1.74805-10.9989-1.01-22.2398 2.08941-32.7539 4.81641-19.1798 2.99967-44.2383 13.04979-61.3477 21.63476-6.3125 2.50481-11.3025 7.43404-16.7363 11.37305-2.0099 1.38369-3.4426 3.21154-4.291 5.49414.3838.73731.9384.86727 1.6757.39258 5.6762-4.39351 12.8375-8.5849 19.2813-11.625 3.8784-2.18161 7.8483-4.20995 11.8984-6.06836 7.4336-1.0201 13.6552-5.33341 21.0586-6 4.949-4.84801 37.6921-8.50435 44.6914-4.65625 4.7066 1.30291 9.2511 3.00043 13.6446 5.11133.5252 1.4645.3032 2.83645-.6563 4.11914-3.6966 6.49432-9.1299 14.62577-9.1699 22.27148 1.1816.4646 2.1803.21179 2.9883-.75781 1.4036-1.50466 5.3121-7.16901 5.2734-8.99805 7.5548-8.56481 12.5443-13.16216 22.8867-18.29297 4.6763-1.4847 9.0896-2.2102 13.5235-4.5332 5.6964-2.95931 28.6748-4.36352 31.6543 1.83789.4949 1.48469.1907 3.73687 1.7461 4.60547 2.3937.30301 4.8087.43298 7.2226.39258 4.848 1.50489 8.6254 9.10197 10.4434 13.45508 1.616 2.71689 2.6253 5.63496 3.0293 8.75586-2.1614 15.93781-.8892 30.48211-.3438 46.41992-.3131 2.63609 1.5159 4.62606.8594 7.13086.9595.5656 1.6971.39404 2.2324-.53516.5252-7.73661 1.271-15.47433 2.2305-23.21094.4141-12.5543 6.9603-19.78573 11.7578-30.62304.5353-.5151 1.1605-.64542 1.8574-.38282 1.8483 1.5352 3.7369 3.00982 5.666 4.42383 1.4443.3535 2.9193.48381 4.4141.38281-.1818-5.2722-2.6861-9.06897-5.7363-13.17968-3.535-10.8171 34.158-33.81484 42.1875-32.26953 1.3029-.62621 2.6468-1.13089 4.0507-1.48438 4.5046-1.0706 8.9874-2.19199 13.4415-3.35352.7575.12121 1.1729.56477 1.2539 1.32227-.03 2.9492-.1015 5.90789-.2227 8.86719.7777 4.6561 4.2815-1.19083 5.5137-2.21094.1515-.7575.4442-1.4555.8886-2.0918 12.4432-10.07981 29.7252-7.81644 44.6934-7.40234.3531-.78781.4539-1.64697.3125-2.57617-.4545-1.1615-1.2509-1.99858-2.4023-2.51367-18.1901-4.52482-43.8054-9.62644-52.6934-28.40235-.5151-.9999-.747-2.06054-.707-3.18164.9191-2.4947 1.7071-5.01892 2.3535-7.57422-.5858-1.7978-2.4338-1.8483-3.8985-2.5957-5.6757-1.2827-16.3909-26.209-20.25-31.75391-.432-.74738-.8689-1.48536-1.3124-2.22265-1.0914-1.62612-2.121-3.2931-3.0704-5-.8182-1.20332-3.5645-6.654368-5.3418-6.716798zm400.4629.26172c-.1286.008-.2811.0674-.455.19336-1.9797 2.211898-3.6554 4.635378-5.0391 7.271478-1.4645 2.37351-2.9889 4.71673-4.5645 7.01953-1.1713 1.9086-2.2727 3.85858-3.3027 5.8379-4.2117 6.57509-10.4642 23.37175-18.0391 25.94726-1.6059 1.09081-3.141 1.0211-2.3027 3.33398 2.7976 3.67645 2.3932 6.93856-1.2226 9.79688.2622.6161.2319 1.22247-.08 1.81836-4.1006 6.59531-9.6053 11.66388-16.5137 15.20898-7.5144 3.9794-15.4426 6.77787-23.7852 8.41407-2.8179.36361-5.5968.92967-8.3339 1.69726-1.4241.48481-2.1027 1.54514-2.1407 2.83789.013.54529.3085.97266.5567 1.41406.7373.56562 1.5841.88762 2.5234.97852 6.2115.31311 12.434.54578 18.6758.69727 1.2624.0707 2.5344.16199 3.7969.2832 8.2012 1.0908 16.5838 2.1217 21.5429 9.5957.4444.7171 1.7788 2.86802 2.7383 1.54492.1212-2.929.2215-5.85777.3125-8.79687.6565-.6161 1.4351-.79742 2.334-.54492 13.847 1.7978 22.5932 5.01891 34.875 11.64453.5151.2121.8492.57603.9805 1.11133 5.8378 1.35339 25.4413 17.36182 22.6133 23.48242-3.232 4.48441-6.4247 7.71578-8.4649 12.9375 5.9388 4.7066 9.1516-7.33229 12.9492-4.08008.7878 2.5856 1.5554 5.18164 2.3028 7.77734 7.8274 10.61502 9.4138 22.07906 10.7773 34.91602.071 3.81781.2423 7.63403.5352 11.43164.8484 1.3635 2.1006-.0905 2.1406-1.19141.2121-2.79771.3641-5.59487.4551-8.39257.3432-15.54392.4848-31.08729.4238-46.6211.2121-.55549.3526-1.07151.4336-1.5664.101-4.69651.5661-4.10054 4.414-5.25196 4.7473-.58579 3.4144-5.57519 3.8184-8.9082 1.3231-5.69637 8.8268-7.65532 13.3516-10.2207 11.9079-3.8279 19.705-3.24304 30.8554 1.79687 12.1301-2.4543 20.7356 4.69784 29.0176 12.58594 6.8478 5.0702 9.1003 14.23039 15.0996 18.77539 1.0706.202 1.6767-.23213 1.8282-1.30273-1.6665-7.8174-5.2323-14.998-9.545-21.72461-.5147-1.00999-.4993-2.00077.061-2.98047 2.5553-2.6462 6.2527-3.41402 9.4746-4.94922 6.4034-3.4239 20.2703-5.26216 26.4414-1.41406 1.0403.61611 2.1503 1.03985 3.332 1.25195 17.9983.2626 36.0874 7.0714 51.8535 15.47461 6.4842 3.6865 12.8786 7.51346 19.2012 11.47265 1.0605.7171 1.8482.51564 2.3633-.60546-2.0282-3.00254-14.8216-14.34339-17.9473-14.25391-.05.001-.098.006-.1425.0137-3.1614-2.9492-7.3823-5.01055-11.3516-6.69726-26.7751-11.4029-56.2062-21.4828-85.4961-22.17969-1.5958-.101-2.061-1.67663-.3945-1.82813 26.8356-3.0401 52.2572-12.53381 78.4668-18.5332 14.443-2.2119 37.5208.80845 36.3593 20.28125-1.5251 6.6458-7.575 11.57346-12.2109 16.13867-.5247.6262-.7156 1.33331-.5742 2.1211 1.8584 2.6664 13.7557-6.72548 15.4121-8.70508 9.2718-8.97891 10.8066-14.52481 24.9668-15.19141-.1616-5.0904-9.5447-10.17134-4.9492-14.49414 10.0091-7.9588 20.1805-12.43204 32.25-16.43164 12.9986-2.89871 26.0772-5.71737 39.3183-7.29297 9.6758-1.85839 19.453-2.81635 29.3106-2.87695 26.5429-3.05019 50.117 1.52348 76.2558 4.05859 4.0501.58579 7.4622 2.30397 11.6739 2.38477 6.4233.97966 12.7971 2.21199 19.1093 3.71679 4.4036.909 8.7869 1.87834 13.1602 2.89844.3838.101.7685.2115 1.1523.3125 6.5246 1.50491 13.049 2.94995 19.5938 4.34375 1.1413.3434 2.2315.26315 3.2617-.25195-7.9083-2.3735-15.8472-4.67772-23.8262-6.91992-1.4443-.4848-2.8968-.93908-4.3613-1.36328-2.5452-.66661-5.112-1.27295-7.6875-1.81836-7.2613-2.41365-14.6444-4.32241-22.1582-5.73633-2.1109-.52519-4.2318-.99963-6.373-1.42383-6.4034-.9797-12.7975-2.10078-19.1504-3.36328-11.413-1.25241-22.7957-2.67571-34.1582-4.27148-11.3524-.9494-22.7056-1.80891-34.0782-2.56641-10.3727-.3737-20.7451-.20148-31.0976.51562-6.2923.404-12.5944.75756-18.8867 1.06055-10.9988.55551-21.6848 2.52435-32.5625 4.08984-6.6862 1.34332-13.3416 2.80849-19.9571 4.4043-26.8559 7.31239-53.7325 14.54418-80.6289 21.70508-9.0596 2.19169-18.21 3.88793-27.4414 5.08984-3.2825-.2424-5.1602 1.5754-8.4629.59571-9.9484 2.5048-19.2413 3.87849-29.4726 4.71679-.8383.0101-1.2925.41498-1.3535 1.21289-22.9674 1.0302-45.9042.23104-68.8008-2.32421-3.1613-.28282-15.3724-3.9896-17.5742-5.8379-.1919-3.63601 3.787-5.69592 3.1406-9.0996-.2727-1.12111-.9694-1.66669-2.0703-1.64649-8.9385 4.60561-13.5433 8.29171-24.3907 7.85742-8.1104 0-13.9285-3.62646-17.4433-10.89843-1.8584-3.67639-1.0509-6.62531 2.4336-8.85743 2.8179-2.67649 2.5761-5.10065-.7266-7.25195-2.929-1.8887-3.9796-4.55396-3.1211-7.99805.9292-6.04991 3.9592-12.99958 6.3731-18.67578.4443-.93924.8779-1.88887 1.3222-2.82812.9393-1.9998 1.8794-4.00996 2.8086-6.00977 1.212-2.8684 2.7379-5.55381 4.5762-8.05859.3365-.56623.2725-1.799338-.332-1.830078-.017-.00089-.034-.001-.053 0zm-100.2675 1.830078c-.3202.004-.6911.15586-1.1153.45508-6.6054 9.48389-27.1602 17.9475-37.8359 14.34179-2.7169.27271-5.4426.3929-8.1797.38282-.909-.19192-1.2827-.74723-1.1211-1.65626.9595-1.5352 1.8687-3.10112 2.707-4.70703.5252-2.24208 2.5137-5.45414-1.2031-5.77734-1.01.7171-2.0801 1.3748-3.2012 1.9707-5.8075 6.37311-10.0197 6.45262-18.332 6.64453-5.4641.47469-10.6961-.41404-15.6855-2.65625-3.737-1.03008-11.2709-7.59383-14.5938-7.11913-13.3724 7.7669-22.3106 11.08829-38.4102 9.89648-5.2116.1414-8.5445-5.5044-12.6855-7.9082-2.1816-1.6766-4.7976-1.55515-3.9492 1.93945 1.0504 2.1917 2.0194 4.41338 2.9082 6.67578.2929.8686.1005 1.57731-.5762 2.13281-3.3128.25249-6.6042.13128-9.8867-.35351-3.1916.7575-6.4233.92778-9.6856.51367-8.989-.45449-18.0688-6.15107-23.8359-12.79688-2.3131-1.919-3.3636-.13059-2.2324 2.16211 3.8784 8.54461 13.3409 23.20949 13.6641 32.2793-2.8583 9.696-7.7964 10.81721-16.543 12.50391-2.0604.39391-2.5855 1.48572-1.5957 3.27343 2.121 2.41389 4.6253 3.23098 7.2715 4.86719 11.3423 6.7468 13.8675 18.81672 14.9179 31.07813 5.0705 7.2821 3.4648 24.95697 5 33.92578 1.0706.8181 3.0597 1.12203 3.3223-.67578.8282-6.30241 1.313-12.63538 1.4746-18.98829.4444-1.15139.849-2.3131 1.2227-3.4746.7373.0808 1.2429.48406 1.5156 1.20117 3.333 11.5241 11.2207 22.04818 12.6953 33.92578.9999 4.50459 1.7567 9.04936 2.2617 13.63476.7474 7.50431-.1909 19.64466 1.4453 26.54297.5353 1.84829 1.7464 2.96938 3.625 3.36328-.2525-8.2113-.6961-16.37077.5664-24.52148.3939-.71709.9486-.87956 1.6758-.50586 2.02 2.75731 3.8579 13.32182 5.2012 17.16992 3.6764 6.9589 6.4232 13.40213 8.5644 21.07813 1.2827 3.7168 2.4951 7.45536 3.6465 11.22265 7.4437 12.17052 8.4229 23.68304 10.9883 37.32813.9191.80802 1.7474.71831 2.4746-.27149.2323-6.1913.4341-12.38286.5957-18.57422.101-1.0402.6783-1.57542 1.7285-1.5957 1.2321 1.33313 2.3826 2.75725 3.4532 4.25196 3.6159 4.96919 5.585 10.52326 5.9082 16.66406 1.1211 7.8982 1.7879 15.8283 2 23.78711 1.1413 1.34329 2.8284.44311 4-.375-.6767-7.37299 1.2722-28.20851 6.3828-35.06641.2323-.35349.3944-.71711.5156-1.12109.2595-.73006 1.464-3.84894 4.2012-7.41407 1.7776-2.04021 2.9295-.26219 2.6972 1.75782.071 5.7166.1512 11.43379.2422 17.15039.2323 1.818 2.4755 1.49497 3.334.58593 2.3432-9.24148 2.584-19.91719 5.5938-29.32031.6565-1.76748 1.4659-3.45432 2.4355-5.07031.8383-1.44429 1.7875-2.81886 2.8379-4.10156 3.0846-4.46998 6.1139-15.18663 8.4336-22.97656 1.9796-3.75721 3.0489-17.19179 7.4727-18.24219 1.4948 9.87781.6172 19.71683.1425 29.68554-.101.8686.08 1.65662.5547 2.35352.4343-.0505.7482-.28317.9199-.69727.6969-3.1714 1.3735-6.35401 2.0098-9.52539.03-.40401.2432-.65519.627-.74609.8888-9.0193-1.0523-18.29097-.1231-27.25977v-.002c1.2424-10.79651 4.5353-20.2907 8.6055-30.2793 1.1716-6.666 6.5252-23.70488 10.8379-28.37109-.1211-.42419-.1624-.85868-.1114-1.29297.7878-3.2825 1.6064-6.51381 2.4649-9.69531 1.414 1.46449-.283 8.89854-.8789 11.01953-.9191 9.39302 1.1914 18.41267.7773 27.77539.1213.87851.3848 1.71594.7989 2.51367-.3333 2.07051 2.4025 2.71823 3.6953 1.43555.505-2.47452.7881-4.99029.8281-7.52539.202-3.31281.394-6.61527.5859-9.91797.9292-9.47376 1.9902-18.93707 3.1719-28.39062.01-9.65557 10.272-22.97888 17.5137-28.45313 2.0705-1.17161 3.6764-2.79701 4.8379-4.85742.3638-.7676.4549-1.5761.2832-2.4043-1.7877-2.84821-9.6368 2.69714-12.9395.2832-1.9285-1.21181-3.6458-2.67596-5.1504-4.39257-7.5144-10.4232 13.303-29.64468 13.4141-39.49219-.2525-.808-.6441-1.20837-1.1777-1.20117zm-98.127 12.09375c5.7313.0381 14.6252 5.88718 19.2207 7.39844 6.3226 2.24218 17.3008-3.76714 21.3105 2.41406 2.5755 5.15101-.6752 8.92924-1.6953 12.77734.6262.3939 1.3028.47382 2.0098.26172 1.4746-1.8382 9.4333-10.10903 11.2715-10.88672 12.2412-3.8481 15.7655.72739 18.1289 12.0293.5858 5.60551.9495 13.34032-.5352 18.7539-.6262 1.25242-1.4337 1.41554-2.4336.48633-.8888-4.53491-1.7986-9.07056-2.748-13.60547-.6161-1.49479-1.7372-2.029-3.3633-1.625-3.8986 1.07061-8.9996.59546-12.7265 1.60547-1.313 1.06049-5.1511 3.25077-6.6661 1.63477-1.2221-1.90889-2.686-3.61458-4.3828-5.10938-4.5349-.68679-10.1502 1.47363-14.4629.73633-1.6463-.8585-.455-3.26156-.1621-4.56445.2828-2.69671-.8587-3.69724-3.414-2.99024-.9797.2828-1.9582.58601-2.9278.87891-4.0905 1.7574-8.2833 3.18264-12.5859 4.27344-1.6867.909-3.3017 1.86695-4.8672 2.87695-3.343-1.61601-6.6761-3.23038-10.0293-4.82617-4.8274-2.48423-8.4446-2.55516-9.6465 3.54492-.5757.5858-2.2216 1.58517-3.0195.95899-5.3227-7.94872-11.6649 6.67629-18.8359 3.12109-1.6463-.85849-3.3832-1.4041-5.2012-1.64649-12.5038 3.838-13.2108 1.08011-17.5235 14.41211-.6464 1.55541-1.1929 1.52489-1.6171-.11132-1.2625-5.71659-.3118-7.74686 2.2031-12.44336.9494-1.59581.757-2.98917-.5762-4.20118-2.3634-1.1615-5.9187-1.44439-6.1914-4.71679.6363-13.15021 9.1595-9.48353 18.502-10.45313 6.1408-.92921 8.3528 10.05969 11.7363 13.625 1.8079.5252 3.3342.0404 4.5664-1.47461 5.2419-5.05-5.4956-7.77732-6.8086-12.26172-1.2524-.65651-1.3519-2.89922.1328-3.11132 2.9896-.7272 11.1709.00045 14.5645.22265 2.4644.0909 1.7872 5.41331 6.4433 2.19141.9797-1.919 2.2821-3.56553 3.9082-4.94922 5.8479-1.3029 10.6954-2.14052 16.1797-4.85742.6679-.26134 1.4234-.37459 2.2422-.36914zm2.3633 6.94531c-1.3303.0523-2.8401 1.74394-2.5352 3.91797-.3434 2.20179.5668 3.49382 2.7383 3.85742 3.6259-.25249 1.7258-4.2107 1.4531-6.3418-.3124-1.03809-.9594-1.461-1.6562-1.43359zm78.1035.61523c1.4847 2.08059-2.2012 7.15024-3.6152 8.80664-1.7776.88882-2.5157-2.24207-2.8086-3.48437.5959-3.6461 2.7373-5.41317 6.4238-5.32227zm-159.875 1.16993c2.9086.1 6.7957 2.52251 2.6484 7.58593-2.7775 2.11091-4.8884-4.60543-5.1308-6.49414.1691-.64134.9424-1.00598 1.916-1.08008.1825-.0139.3725-.0184.5664-.0117zm110.6641 7.03515c-1.4249.0197-2.3609.78762-2.8028 2.29883 1.0504-.18181 4.9584-.36293 3.4434-2.26172-.2235-.0278-.4371-.0399-.6406-.0371zm-44.8692 13.21485c6.7123-.23088 10.9829 9.23396 11.7852 14.55664.8888 1.14131 1.8984 1.26251 3.0195.35351.6464-2.3937 1.425-4.75741 2.334-7.07031.414-1.59555 3.8681-4.10997 3.6269-5.50391 2.2929.1604 6.3824-3.66594 7.8165-.64648.7671 5.67621 1.5354 11.36219 2.2929 17.05859.2121 3.6158.6872 7.21163-3.4336 8.66602-2.9694 2.35331-.3752 8.82603-2.375 10.83594-1.9998.49489-3.5741-.0893-4.7558-1.75586-1.0807-4.34301-2.8085-8.41334-5.1719-12.21094-8.4436-6.09031-3.868 12.0595-6.4434 13.625-1.8686.47471-3.474.0406-4.8476-1.30273-2.1614-5.90854-6.2318-12.23198-5.8985-18.67579.4141-5.96909.8775-11.92805 1.3926-17.87695.2216-.0281.4417-.0453.6582-.0527zm-11.3281 4.59179c1.247.0256 2.3424.50773 3.2969 1.43946 1.4241 5.41361 3.7184 11.64677 2.9609 17.24218-1.8988 6.36301-1.7085 9.17038-1.1328 15.70508.1717 4.44401-2.9173 1.17125-4.0586-.34375-3.6966-5.79741-10.5758-13.13066-9.9395-20.39258.1212-6.07009-.2128-12.83663 7.5743-13.52343.4494-.0934.8831-.13548 1.2988-.12696zm55.9746 1.24414c1.4834.0252 2.7763.41388 3.0742 1.92383.081 5.0096.7271 10.63436-.2324 15.54297-2.02 4.2622-5.2721 13.90756-8.3223 16.87695-1.4342.4242-2.4743-.01-3.1308-1.30273-.4545-5.90851.7167-8.37237-2.586-13.58398-.2825-1.66651-.4015-3.3426-.3515-5.0293.1313-3.2522 1.3524-10.85809 2.9179-13.4336 1.4241-.40399 2.8991-.64738 4.4141-.73828 1.0605.0556 2.7334-.28111 4.2168-.25586zm-83.2988 1.28907c.7473-.0103 1.564.26693 2.4531.91601 6.1004 6.64578 10.6054 8.70731 9.959 18.78711-.6868 16.7559-.1226 31.29925 4.2305 47.50977.02.9292.6667 2.42513-.1817 3.15234-3.434-4.93891-6.6052-10.08124-9.5039-15.41406-7.1104-12.52401-13.3211-26.16784-13.5332-40.80274.035-3.22016 2.0089-14.08557 6.5762-14.14843zm-29.3125.0898c2.2296.0314 5.2668 2.35512 5.9297 4.48242 1.3029 6.02971-7.6557 1.87015-8.3828-1.52344.068-2.17023 1.1153-2.9778 2.4531-2.95898zm163.6738 1.76367c1.2578.0325 2.5809.9807 2.6133 2.63867-.9393 2.3533-5.019 2.36443-4.8574-.44336.076-1.53867 1.1342-2.22397 2.2441-2.19531zm-29.3828.125c.8575.0232 1.6198.42765 2.1406 1.46289 2.1715 4.0097 5.0102 7.3232 4.5254 12.19141-1.9291 18.95771-12.201 37.66247-21.998 53.58008-1.515 1.74729-2.112 1.46541-1.7989-.85742 5.1308-15.81661 4.8091-31.19976 4.9707-47.64258.6161-6.5145-.4255-11.15973 5.584-15.00782.3131-.3737.6566-.69766 1.0606-.98046 1.2776-.99991 3.629-2.79703 5.5156-2.7461zm448.2012 5.82422c.068.002.1287.007.1875.0137-.059-.006-.1197-.0103-.1875-.0117-.1067-.003-.2233-.001-.3496.006.1263-.007.2429-.01.3496-.008zm-971.8575 3.49024c.2054.006.4259.044.6582.11718 2.8987 1.0403 17.9274 4.4253 10.211 8.6875-3.0805.8282-11.5648-5.11078-12.332-7.95898.3539-.57571.8469-.86229 1.4628-.8457zm934.0235 2.0371c1.4882.0638 2.11.74942.8242 2.61524-3.2421 1.6261-5.9389 4.43474-8.8477 6.46484-2.7169.6969-4.8189-1.79765-5.2128-4.25195.04-1.3433.738-2.08159 2.1015-2.21289 1.3067-.2525 7.1812-2.41067 10.4473-2.60547.2449-.0146.4749-.0167.6875-.01zm-287.4219 3.72852c2.3485-.0628 4.5931 2.20963 3.5762 5.1582-1.6968 1.5554-7.6949 4.11256-7.7559.0117.464-3.65872 2.3531-5.12109 4.1797-5.16992zm-353.248 1.25391c.5472-.0379 1.2003.10654 1.9609.43164 5.9085 5.90849-1.7268 9.25042-4.0195 2.45312.1666-1.84009.8545-2.80144 2.0586-2.88476zm-1002.6133 1.92578c-.7006.0284-1.3738.32623-2.0215.88867-4.0906 2.6866-13.7154 10.57565-14.9981 15.25195 3.7269 6.46401 8.776 10.13878 13.9473 15.20899 1.4746 1.27261 2.9892 1.34409 4.5547.21289 4.2521-4.11071 8.8493-7.72699 12.5156-12.4336 1.4746-1.6867 1.6157-3.48402.4239-5.38281-3.7781-4.87831-8.0197-9.32266-12.7364-13.32226-.5788-.3049-1.1406-.44589-1.6855-.42383zm-997.611722.34769c-.964874-.003-1.922797.26457-2.855468.88477-4.605601 3.5855-16.8365134 12.54472-10.9785164 19.09961 2.6765024 3.21181 5.6670524 6.12043 8.9394544 8.73633 3.262298 2.84821 5.848359 3.7556 9.130858.34179 3.6966-4.21171 14.715719-11.66539 9.261719-17.9375-2.863351-3.17014-8.287729-11.10625-13.498047-11.125zm4354.846022.90235c-.1772-.009-.354-.008-.5292.002-1.0385.06-2.0396.46189-2.9708 1.3125-4.0195 3.08049-12.0303 9.2724-12.6464 14.55469.7474 5.3631 12.2311 16.87641 17.8164 14.88672 3.838-2.69672 17.1004-12.49261 12.8281-17.9668-2.6336-3.31048-9.0044-12.51176-14.4981-12.78906zm-3285.1289.0996c-.9882.0339-1.9686.33539-2.9218.98242-5.0904 2.94919-10.2814 9.31311-12.7559 14.54492 4.1915 5.7974 8.2312 9.57397 13.6953 13.94727 1.4443.97971 2.8787.97971 4.3028 0 4.2622-4.1309 15.7758-11.43239 11.1601-18.3711-2.5906-3.63032-8.144-11.28677-13.4805-11.10351zm587.7403 1.32812c-.583.0298-1.1841.31927-1.8028.86719-6.5649 6.00949-12.0184 8.29255-21.0781 8.77734-11.1302.3535-22.2695.60565-33.4199.77735-11.6049.5555-23.2206.84793-34.8457.89843-31.815.33329-63.6304.38498-95.4453.14258-54.8746-1.15134-109.7629-1.13464-164.6504-1.10156-39.8445-.1818-79.6792-.0716-119.5137.32227-4.7773-.2525-3.5944 5.29282-2.4531 8.07031 1.7675 1.56551 10.8977 1.18248 13.5742 1.33398 140.8345-1.43102-30.2996.5379 302.0899.7168 18.7232-.12708 29.7966.68364 90.3554.44531 16.3216.0909 32.5027.009 48.7637 1.16016 6.464.4444 15.4719 11.45304 19.3301 10.80664 1.5553-1.04031 3.0612-2.15034 4.5156-3.33203.3309-1.94312 2.3128-3.22851 3.5859-4.65625.2727-.39391.5951-.74779.9688-1.05078 2.4738-2.8695 9.5935-5.94367 13.4238-5.97852.8989-1.38371.7264-2.61623-.5058-3.70703-2.3331-1.0504-4.6962-2.03955-7.0899-2.96875-6.0196-2.7371-9.2833-5.63682-13.6465-10.35352-.6873-.81809-1.4067-1.20827-2.1562-1.16992zm-1587.672269.29102c-.85144.0408-1.72367.28181-2.60742.77734-4.686376 3.05021-8.038613 7.18132-10.058592 12.38281 1.272598 4.63591 10.321382 15.90729 15.775392 11.39258 4.343-3.7269 12.838279-9.10967 7.929689-15.82617-2.41169-3.29797-6.441279-8.94669-11.039069-8.72656zm4215.158569.52344c-.1434-.007-.2861-.007-.4297.002-.8507.0511-1.7022.3917-2.5449 1.11133-4.3632 3.0199-9.2613 6.9883-10.0996 12.5332.808 5.90851 10.413 15.73652 16.4023 11.07031 3.1512-2.7775 11.2005-9.34251 7.918-14.09961-2.4684-2.62526-6.8012-10.38575-11.2461-10.61718zm-3155.4785.14063c-2.9829-.003-5.8189 2.27995-8.5234 5.48828-2.1816 2.2826-3.6081 4.94719-4.2832 8.01758 1.6546 6.0398 10.2411 15.34231 16.998 10.66602 9.1405-7.09022 10.7578-12.14044 2.1426-20.52344-2.1829-2.57677-4.2931-3.64666-6.334-3.64844zm1564.1035.16211c-.5004.0136-.9901.17277-1.4707.47656-3.5855 3.29261-7.132 6.63604-10.6367 10.01953-2.0402 1.2322-4.2508 1.88829-6.6445 1.95899-1.818.72722-5.3833 1.24359-3.7168 4.09179 2.8179 3.53501 6.9289 2.11071 10.373 4.66602 3.9895 3.66631 7.807 7.50431 11.4531 11.50391 2.2927.8383 3.3736-2.32372 5.0098-3.28321.2222-.4646.5745-.81847 1.0391-1.05078.2626-.20199.5362-.3937.7988-.5957 3.6057-3.535 7.8976-5.65594 12.8769-6.37305 11.4938-1.33319 23.3109-.80787 34.8653-.88867 137.2489-.4343 274.5483-1.3538 411.7871-1.4043 2.6563-.8383 3.2319-4.3922 1.5351-6.29101-.4444-.1616-.8986-.31403-1.3632-.44531-82.7797.0202-165.5693-.34278-248.3692-1.08008-6.0393-.0303-12.0795-.0511-18.1289-.041-53.701-.4141-107.4138-.8372-161.125-1.27148-7.3023.0505-14.5432-.55553-21.7344-1.82813-6.5145-.95949-10.3019-3.97964-15.2812-7.89844-.356-.15529-.7057-.24278-1.0508-.26171-.072-.004-.1433-.006-.2148-.004zm588.6973.64453c-.1662-.005-.3339-.003-.502.008-5.8257.35954-12.7223 9.85396-14.7246 13.83399-.3131 5.05 12.0708 17.51339 17.1309 13.74609 13.3017-10.55452 15.9874-14.62495 1.3828-26.18945-1.0125-.93623-2.1242-1.36214-3.2871-1.39844zm74.207 2.60938c-1.2741.028-2.4777.34983-3.5117 1.02148-3.5048 2.5351-7.95 6.40311-7.8086 11.09961 1.212 4.1107 9.2525 12.95822 13.7773 10.85742 18.7973-8.99657 6.462-23.17432-2.457-22.97851zm-152.2832.19921c-6.6595.0668-13.2261 7.05828-10.9902 14.68946 8.6961 16.7458 27.9662 2.00947 19.3105-9.89844-2.2472-3.42138-5.2932-4.82136-8.3203-4.79102zm-850.1191 3.42188c3.5286-.17296 7.3529.25771 9.1406.37891 29.0983 5.40348 57.8112 12.83685 87.6973 13.28125 2.3836 3.01989-3.5435 1.97951-4.8868 1.94921-32.4715 3.52491-67.2767-7.50322-99.3242-12.36132.6111-2.29776 3.8444-3.07509 7.3731-3.24805zm-2237.22111 1.41992c-1.2726-.0202-2.50385.19232-3.68555.63672-1.717 1.15142-1.38458 7.33188.26172 7.45313.2323-.6161 4.50233-.38421 5.19922-.28321 8.5042.1414 13.21294-.31211 21.70703-.38281 8.15987-.55966 33.3323-.73043 35.66406 0 9.15059-.101 18.30025-.1227 27.46094-.082 248.20752.22221 486.42565-.70716 734.63315.18164 2.3432.2828 4.47552-.22217 6.39453-1.53516 1.4746-2.3836 1.17007-5.2619-1.96094-5.78711-278.5378-.87869-547.12626.21292-825.67416-.20117zm1994.18401.0644c.2826-.006.6214.17595 1.0214.63282.6666.7676 9.0794 20.13853 3.2618 15.83593-2.9391-3.71681-5.5342-8.6458-5.4942-13.5039-.046-.92794.2863-2.94504 1.211-2.96485zm-115.4727.26954c1.4847.0303 4.4651-.29328 4.5762 1.89843-14.6753 3.72691-29.1287 7.30244-44.2383 9.14063-6.1307.48481-12.2622 1.04893-18.3828 1.69531-11.0898.1212-22.1798.18326-33.2696.19336-.4444-1.212-.091-2.05104 1.0704-2.51563 9.3223-1.32311 18.6958-2.18192 28.1191-2.58593 9.8879-.28279 19.2293-2.83683 28.7637-5.16992 10.7161.30299 22.524-2.50475 33.3613-2.65625zm1426.1191.0605c-3.2118.42421-8.7057-.51638-11.2812 1.45313-1.0302 2.1412-.9904 6.20083 1.0801 7.68554 1.5756.303 3.162.39498 4.7578.26368 39.1779-.71711 78.3667-1.19152 117.5547-1.42383 175.8714-.2222 351.8438-.66723 527.705.72656 48.1466.44441 96.2928.75766 144.4395.93945 12.9583-.0808 25.9074-.16172 38.8555-.23242 4.0602-.2828 4.0097-8.32189 0-8.74609-16.3013-.2424-32.5932-.4052-48.8946-.4961-258.0754.29291-516.1516.23409-774.2168-.16992zm-1764.3906 2.01758c.851.003 1.8293.49355 2.8008 1.6582.1414 1.212.7669 4.19051-.2734 4.98828-.1313.54545-.4856.81965-1.0411.83985-1.4341.5555-2.5439.21137-3.3418-1.04102-1.6696-3.27399-.3192-6.45309 1.8555-6.44531zm772.9434.0625c.097.001.1926.007.289.0156-.1842-.0159-.3717-.01-.5605-.004.085-.003.1893-.0129.2715-.0117zm263.3183.16211c4.057.26139 4.4214 9.16534-.8281 7.15039-1.0706-.63631-1.8368-1.53585-2.2812-2.69726-.2727-1.53524.11-2.85743 1.1503-3.97852.7247-.37244 1.3795-.51195 1.959-.47461zm-201.5371 17.94922c4.0034-.0582 9.2108.0502 10.2031 3.20898.2323 3.2017-14.3209 1.40529-15.4824-1.57422.1919-1.03019.8165-1.57645 1.877-1.62695.866.0505 2.0679.0138 3.4023-.008zm-543.4687.52344c4.0562-.0214-5.2521 8.6117-6.211 9.43359-1.4342 1.0908-3.2431 6.35141-5.5156 3.9375-2.0705-3.0098-6.8161-6.28158-7.1797-9.98828 1.7574-1.3534 14.9983-1.53553 18.4727-3.35352.1594-.0192.3027-.0286.4336-.0293zm-91.3965.27539c2.7901-.0871 5.2579.27511 5.3437 2.25976-2.4341 3.535-13.3012 4.33262-15.0586-.40429.5151-.95951 1.3243-1.43393 2.4454-1.42383 1.3685.1919 4.4794-.34453 7.2695-.43164zm550.4922.0371c3.535 1.4847 7.2118 2.44427 11.0195 2.88867 1.9695 1.25239-1.2119 7.11975-2.6562 8.28125-4.1915 3.8784-8.6858-6.49294-9.918-9.36133-.081-1.15142.4336-1.74799 1.5547-1.80859zm-243.5157 8.82617c1.3096.0194 1.5603.97758.7422 2.8789-1.5958.1313-2.404 1.02166-2.414 2.66797.2424 4.9086 1.5249 9.37208 2.4238 14.17969.091 1.3231.7782 2.02953 2.0508 2.14063 1.1514-1.02009.5857-7.00828.4746-8.70508.3636-1.39379.99-5.26253-.2422-6.18164.071-.96954-.1019-1.8987-.5059-2.77735.7877-.1211 1.4547.1213 2 .70703 6.4741 5.2217 5.7377 12.41339 7.1719 19.86719.2929 1.86851 3.0691 2.40312 3.7559.78711.7272-5.42369.7076-10.38309 2.6367-15.625.9595-.8585 2.09-1.32316 3.3828-1.41406 3.3734-.6161 2.4945 10.68655 3.6055 12.89844.4545-.0202.9107-.0312 1.3652-.0312.2626-2.8987 1.6561-4.62533 2.6055-7.21094.8379-.88871 1.1707-1.96981.9687-3.24219-.2424-.46459-.5956-.8071-1.0703-1.0293-.8888-.8989-1.7769-.9105-2.6758-.0312-.1919-1.82809-.6682-3.58479-1.4257-5.27148-.202-1.46451.1317-2.78739.9902-3.95898 3.7168-1.35341 4.606 5.56349 4.7676 7.77539.5252.4343.9993.91001 1.4336 1.44531 3.2926 1.1716 1.799 8.26127 2.3242 10.98828-.03.7878.6863 3.36307.1914 4.72656 0 .49491-.0004.98005.01 1.46485 1.8685 2.1008 1.0409 8.22115-1.4336 9.56445-.9898.55551-1.6362 1.36462-1.9493 2.44531-1.1918 8.3325-3.2731 16.42149-6.2324 24.2793-.7474.49489-1.5035.50571-2.2812.041-.8282-2.10081-1.8092-4.13009-2.9707-6.0996-2.222-1.75741-4.4232-1.70801-6.625.15039-.8383 2.27249-1.2425 8.57564-5.1309 5.46484-1.0909-2.04021-2.0107-4.17159-2.748-6.36328-1.3332-1.38371-3.8078.75722-4.3633-1.52539-1.5756-8.41329-3.5836-16.29097-6.3614-24.13867.4141-6.5448-1.4555-26.34036 3.8672-30.57227.6717-.202 1.2256-.30139 1.6621-.29492zm-416.0937 12.17187c-.4147.28555-.8012.5958-1.1602.92969v-.002c.3589-.33404.7455-.64223 1.1602-.92774zm677.8008 2.36719c-.044.0448-.085.0893-.1211.13086.036-.0416.075-.0861.1192-.13086zm-322.709 3.35938c-1.2047.0588-2.072 1.70372-1.8359 3.36328-.01 2.5149.333 4.97901 1.0097 7.38281 4.3026 3.5956 1.8884-7.88741 2.6055-9.69531-.6155-.77644-1.2317-1.07753-1.7793-1.05078zm151.1289.48437c-3.8076 1.4443-3.5444 6.58591-3.7969 9.94922.3636 3.0805 3.5347 2.00915 4.1406.49414.3136-1.8887.9895-9.22125-.3437-10.44336zm-119.7402 2.70508c.2623-.0149.6134.11394 1.0742.42578.8181 2.1816 1.7081 4.33372 2.6777 6.46484.7474 2.82799 1.5559 5.64601 2.4043 8.4336 3.1714 2.9189 5.2712 2.81687 4.8672 8.58398.3535 3.3229-2.3628 5.41349-4.0293 2.00977-1.212-3.0502-1.8186-6.21164-1.8086-9.49414-1.3635-1.88871-2.4751-3.9281-3.3437-6.09961-.4836-.29758-3.7829-10.21403-1.8418-10.32422zm84.5547 2.49805c.4606-.009.97.24323 1.5312.75586.3131 3.02995-.05 15.38223-2.3125 18.64453-.8888 1.66651-4.4631 4.11189-4.4531.49609 1.3635-6.16099 2.596-12.35261 3.707-18.57422.4261-.86922.9351-1.31128 1.5274-1.32226zm-17.2852 26.05664c.1534.005.3159.0599.4863.16211 3.3431 4.04 5.3524 19.22074 2.9082 23.99804-.1111.42421-.2927.81641-.5351 1.16992-.8787 1.818-7.0497 7.42472-7.9688 3.44532.6464-9.59502 2.1214-19.05821 4.4141-28.39063.2083-.26512.4396-.39334.6953-.38476zm-46.4316 1.65625c.7532.0106 1.197.5982 1.3359 1.75781.5353 6.9589 1.5551 11.56399 4.373 18.00781 1.9493 7.3427-6.4536 8.00006-9.2109 3.10156-1.1009-2.6765-1.7164-5.45515-1.8477-8.34375.6161-3.70669 1.7574-11.41226 4.1309-14.17968.4703-.23356.8764-.34858 1.2188-.34375zm15.9765 21.14062c.5835-.021 1.2105.0959 1.8828.35156.9089 1.67662 1.6057 3.44596 2.0703 5.31446.5555 3.232 1.2539 6.43212 2.0821 9.60351 1.2221 2.3533 3.1396 3.3847 5.7656 3.0918 1.2624-.35347 1.1524-2.5549-.2109-2.83789-1.4037-2.55509-1.9505-5.28353-1.6172-8.17188 1.0302-2.55531 5.9296-6.47378 6.7578-1.48437-.02 3.0502.2823 6.05046.8984 9.00976 2.121 1.31301 5.9988-1.7282 6.2715 2.7461-.2525.0808-8.3729 9.27147-9.3223 10.39258-.1616.24239-.3224.48577-.4941.73828-1.2221 2.60579-2.5846 5.11055-4.0996 7.49414-3.03-1.9392-5.8897-4.12093-8.5762-6.54492-2.5655-2.51491-9.0798-5.45489-6.0195-9.76758.7979-1.51502 5.1223-2.71551 5.1523-3.81641 1.2221-3.5451-7.2527-7.06034-3.748-13.96875.8541-1.38875 1.9235-2.10427 3.207-2.15039zm-11.5117 12.16602c3.2541-.0526 4.7394 3.01417 5.3359 5.89257-2.0301 6.67614-7.0404-.52563-7.707-3.58593-.1212-1.2726.4449-2.01965 1.6973-2.25196.2329-.0322.4569-.0512.6738-.0547z" style="clip-rule:evenodd;display:inline;fill:#000;fill-opacity:1;fill-rule:evenodd;stroke:#000;stroke-width:4;stroke-dasharray:none;stroke-opacity:.153006;image-rendering:optimizeQuality;shape-rendering:geometricPrecision;text-rendering:geometricPrecision" transform="translate(-.25 -.25)"/></g></svg>